<?xml version="1.0" encoding="utf-8"?>
<!-- Generator: Adobe Illustrator 15.0.0, SVG Export Plug-In . SVG Version: 6.00 Build 0)  -->
<!DOCTYPE svg PUBLIC "-//W3C//DTD SVG 1.1//EN" "http://www.w3.org/Graphics/SVG/1.1/DTD/svg11.dtd">
<svg xmlns="http://www.w3.org/2000/svg" xmlns:xlink="http://www.w3.org/1999/xlink" version="1.1" x="0px" y="0px" width="211.779px" height="115.516px" viewBox="0 0 211.779 115.516" xml:space="preserve">
<g id="Capa_1">
</g>
<g id="Capa_2">
</g>
<g id="Capa_3">
	<g>
		<path fill="#26377F" d="M198.476,108.51c1.954,0,3.537-1.684,3.537-3.758c0-2.076-1.583-3.759-3.537-3.759    c-1.952,0-3.535,1.683-3.535,3.759C194.94,106.826,196.523,108.51,198.476,108.51"/>
		<g>
			<path fill="#26377F" d="M8.449,108.379V97.404h1.338v10.975H8.449z"/>
			<path fill="#26377F" d="M12.128,108.379v-7.95h1.11v1.115c0.228-0.39,0.535-0.703,0.915-0.94     c0.383-0.235,0.818-0.356,1.305-0.356c0.54,0,0.987,0.123,1.333,0.368c0.348,0.244,0.594,0.587,0.734,1.026     c0.579-0.929,1.334-1.395,2.264-1.395c0.727,0,1.285,0.22,1.675,0.657c0.389,0.438,0.586,1.108,0.586,2.017v5.458h-1.234v-5.008     c0-0.538-0.038-0.928-0.12-1.164c-0.083-0.238-0.226-0.428-0.438-0.574c-0.212-0.143-0.459-0.217-0.746-0.217     c-0.511,0-0.942,0.187-1.281,0.559c-0.341,0.371-0.512,0.969-0.512,1.785v4.619h-1.239v-5.166c0-0.599-0.104-1.048-0.303-1.348     c-0.205-0.299-0.533-0.449-0.995-0.449c-0.348,0-0.67,0.1-0.967,0.3c-0.298,0.199-0.513,0.491-0.646,0.876     c-0.133,0.383-0.2,0.938-0.2,1.662v4.125H12.128z"/>
			<path fill="#26377F" d="M24.032,111.424v-10.995h1.131v1.033c0.266-0.405,0.567-0.707,0.903-0.909     c0.336-0.203,0.741-0.306,1.223-0.306c0.625,0,1.175,0.177,1.655,0.525c0.477,0.349,0.837,0.844,1.08,1.478     c0.243,0.639,0.363,1.336,0.363,2.094c0,0.811-0.133,1.544-0.402,2.198c-0.269,0.65-0.657,1.15-1.17,1.495     c-0.513,0.347-1.054,0.521-1.619,0.521c-0.413,0-0.783-0.095-1.111-0.284s-0.601-0.428-0.811-0.718v3.868H24.032z      M25.157,104.448c0,1.022,0.19,1.778,0.571,2.269c0.382,0.487,0.842,0.734,1.386,0.734c0.554,0,1.024-0.254,1.42-0.762     c0.39-0.507,0.588-1.29,0.588-2.354c0-1.012-0.194-1.772-0.579-2.275c-0.38-0.504-0.84-0.755-1.371-0.755     c-0.529,0-1,0.267-1.404,0.805C25.359,102.646,25.157,103.427,25.157,104.448z"/>
			<path fill="#26377F" d="M37.028,105.819l1.281,0.171c-0.203,0.813-0.579,1.445-1.125,1.895c-0.546,0.447-1.245,0.673-2.096,0.673     c-1.07,0-1.919-0.358-2.549-1.073c-0.625-0.717-0.94-1.721-0.94-3.014c0-1.336,0.315-2.376,0.95-3.113     c0.637-0.738,1.459-1.11,2.47-1.11c0.979,0,1.777,0.364,2.398,1.087c0.622,0.725,0.934,1.741,0.934,3.054     c0,0.081-0.004,0.2-0.007,0.36h-5.461c0.046,0.874,0.271,1.543,0.682,2.006c0.41,0.464,0.92,0.697,1.532,0.697     c0.454,0,0.842-0.131,1.163-0.39C36.582,106.801,36.84,106.389,37.028,105.819z M32.95,103.639h4.089     c-0.055-0.668-0.21-1.171-0.467-1.503c-0.395-0.52-0.909-0.778-1.537-0.778c-0.57,0-1.051,0.206-1.439,0.621     C33.207,102.392,32.992,102.944,32.95,103.639z"/>
			<path fill="#26377F" d="M39.979,108.379v-7.95h1.117v1.204c0.286-0.563,0.548-0.935,0.791-1.115     c0.241-0.178,0.504-0.271,0.797-0.271c0.417,0,0.843,0.146,1.275,0.436l-0.428,1.25c-0.306-0.195-0.606-0.291-0.908-0.291     c-0.271,0-0.519,0.089-0.733,0.267c-0.215,0.177-0.369,0.422-0.461,0.737c-0.138,0.479-0.207,1.001-0.207,1.569v4.164H39.979z"/>
			<path fill="#26377F" d="M44.827,108.379v-7.95h1.107v1.115c0.229-0.39,0.536-0.703,0.919-0.94     c0.381-0.235,0.817-0.356,1.303-0.356c0.541,0,0.987,0.123,1.333,0.368c0.348,0.244,0.594,0.587,0.735,1.026     c0.579-0.929,1.334-1.395,2.262-1.395c0.728,0,1.286,0.22,1.675,0.657c0.39,0.438,0.587,1.108,0.587,2.017v5.458h-1.234v-5.008     c0-0.538-0.039-0.928-0.12-1.164c-0.083-0.238-0.226-0.428-0.438-0.574c-0.213-0.143-0.459-0.217-0.746-0.217     c-0.513,0-0.943,0.187-1.28,0.559c-0.341,0.371-0.513,0.969-0.513,1.785v4.619h-1.24v-5.166c0-0.599-0.102-1.048-0.301-1.348     c-0.205-0.299-0.534-0.449-0.995-0.449c-0.349,0-0.672,0.1-0.97,0.3c-0.295,0.199-0.511,0.491-0.645,0.876     c-0.133,0.383-0.199,0.938-0.199,1.662v4.125H44.827z"/>
			<path fill="#26377F" d="M61.743,105.819l1.281,0.171c-0.201,0.813-0.579,1.445-1.124,1.895c-0.545,0.447-1.244,0.673-2.096,0.673     c-1.07,0-1.919-0.358-2.549-1.073c-0.625-0.717-0.939-1.721-0.939-3.014c0-1.336,0.314-2.376,0.95-3.113     c0.635-0.738,1.457-1.11,2.469-1.11c0.979,0,1.778,0.364,2.398,1.087c0.622,0.725,0.933,1.741,0.933,3.054     c0,0.081-0.003,0.2-0.005,0.36h-5.463c0.047,0.874,0.272,1.543,0.683,2.006c0.409,0.464,0.919,0.697,1.531,0.697     c0.456,0,0.844-0.131,1.163-0.39C61.299,106.801,61.555,106.389,61.743,105.819z M57.666,103.639h4.089     c-0.055-0.668-0.21-1.171-0.466-1.503c-0.395-0.52-0.91-0.778-1.537-0.778c-0.572,0-1.051,0.206-1.44,0.621     C57.922,102.392,57.707,102.944,57.666,103.639z"/>
			<path fill="#26377F" d="M69.492,107.397c-0.462,0.425-0.906,0.725-1.331,0.899c-0.424,0.174-0.881,0.261-1.368,0.261     c-0.807,0-1.422-0.213-1.856-0.642c-0.431-0.424-0.646-0.97-0.646-1.633c0-0.39,0.081-0.746,0.243-1.068     c0.164-0.32,0.377-0.58,0.644-0.773c0.263-0.195,0.561-0.342,0.89-0.441c0.246-0.071,0.613-0.139,1.104-0.201     c1.003-0.131,1.74-0.285,2.215-0.467c0.002-0.186,0.007-0.299,0.007-0.351c0-0.549-0.117-0.936-0.354-1.162     c-0.316-0.304-0.789-0.455-1.413-0.455c-0.584,0-1.014,0.109-1.29,0.333c-0.28,0.224-0.485,0.616-0.619,1.179l-1.214-0.179     c0.11-0.564,0.293-1.021,0.546-1.366c0.252-0.348,0.618-0.614,1.096-0.802c0.477-0.188,1.031-0.282,1.661-0.282     c0.624,0,1.135,0.083,1.527,0.242c0.389,0.158,0.676,0.36,0.859,0.602c0.186,0.243,0.313,0.548,0.385,0.917     c0.041,0.229,0.063,0.646,0.063,1.242v1.798c0,1.254,0.026,2.045,0.079,2.374c0.052,0.334,0.157,0.651,0.313,0.957h-1.297     C69.609,108.099,69.526,107.771,69.492,107.397z M69.387,104.388c-0.452,0.2-1.128,0.371-2.027,0.509     c-0.512,0.08-0.871,0.169-1.084,0.27c-0.212,0.1-0.377,0.245-0.489,0.438c-0.114,0.191-0.173,0.407-0.173,0.64     c0,0.358,0.128,0.659,0.376,0.899c0.251,0.237,0.617,0.358,1.099,0.358c0.479,0,0.904-0.112,1.275-0.341     c0.374-0.226,0.646-0.538,0.823-0.933c0.134-0.301,0.2-0.753,0.2-1.347V104.388z"/>
			<path fill="#26377F" d="M73.852,108.379h-1.152V97.404h1.242v3.914c0.524-0.712,1.194-1.071,2.006-1.071     c0.45,0,0.878,0.1,1.281,0.298c0.401,0.196,0.732,0.474,0.993,0.83c0.259,0.358,0.462,0.788,0.609,1.29     c0.146,0.505,0.22,1.046,0.22,1.619c0,1.361-0.313,2.413-0.931,3.16c-0.621,0.741-1.364,1.113-2.234,1.113     c-0.864,0-1.542-0.392-2.034-1.177V108.379z M73.839,104.344c0,0.954,0.12,1.642,0.358,2.064c0.393,0.695,0.92,1.043,1.585,1.043     c0.544,0,1.01-0.257,1.406-0.77c0.397-0.512,0.593-1.272,0.593-2.286c0-1.038-0.19-1.804-0.569-2.299     c-0.379-0.494-0.834-0.739-1.373-0.739c-0.542,0-1.015,0.256-1.409,0.768C74.035,102.635,73.839,103.375,73.839,104.344z"/>
			<path fill="#26377F" d="M80.696,98.953v-1.549h1.24v1.549H80.696z M80.696,108.379v-7.95h1.24v7.95H80.696z"/>
			<path fill="#26377F" d="M83.924,108.379V97.404h1.24v10.975H83.924z"/>
			<path fill="#26377F" d="M87.225,98.953v-1.549h1.237v1.549H87.225z M87.225,108.379v-7.95h1.237v7.95H87.225z"/>
			<path fill="#26377F" d="M89.826,108.379v-1.095l4.662-5.807c-0.527,0.028-0.994,0.043-1.398,0.043h-2.986v-1.092h5.984v0.89     l-3.967,5.047l-0.764,0.919c0.557-0.043,1.077-0.066,1.566-0.066h3.384v1.161H89.826z"/>
			<path fill="#26377F" d="M102.451,107.397c-0.462,0.425-0.904,0.725-1.33,0.899c-0.425,0.174-0.881,0.261-1.368,0.261     c-0.807,0-1.422-0.213-1.856-0.642c-0.431-0.424-0.646-0.97-0.646-1.633c0-0.39,0.082-0.746,0.244-1.068     c0.164-0.32,0.375-0.58,0.643-0.773c0.264-0.195,0.562-0.342,0.891-0.441c0.247-0.071,0.613-0.139,1.105-0.201     c1.001-0.131,1.738-0.285,2.213-0.467c0.002-0.186,0.008-0.299,0.008-0.351c0-0.549-0.118-0.936-0.354-1.162     c-0.317-0.304-0.789-0.455-1.414-0.455c-0.585,0-1.015,0.109-1.292,0.333c-0.279,0.224-0.483,0.616-0.616,1.179l-1.215-0.179     c0.111-0.564,0.293-1.021,0.545-1.366c0.251-0.348,0.617-0.614,1.098-0.802c0.477-0.188,1.028-0.282,1.659-0.282     c0.626,0,1.136,0.083,1.527,0.242c0.389,0.158,0.676,0.36,0.86,0.602c0.185,0.243,0.313,0.548,0.385,0.917     c0.041,0.229,0.064,0.646,0.064,1.242v1.798c0,1.254,0.024,2.045,0.078,2.374c0.052,0.334,0.156,0.651,0.313,0.957h-1.296     C102.569,108.099,102.486,107.771,102.451,107.397z M102.346,104.388c-0.451,0.2-1.127,0.371-2.025,0.509     c-0.514,0.08-0.871,0.169-1.084,0.27c-0.213,0.1-0.377,0.245-0.49,0.438c-0.115,0.191-0.175,0.407-0.175,0.64     c0,0.358,0.129,0.659,0.377,0.899c0.251,0.237,0.618,0.358,1.099,0.358s0.905-0.112,1.277-0.341     c0.373-0.226,0.645-0.538,0.821-0.933c0.134-0.301,0.2-0.753,0.2-1.347V104.388z"/>
			<path fill="#26377F" d="M110.443,105.466l1.219,0.173c-0.133,0.913-0.471,1.629-1.021,2.145     c-0.551,0.517-1.226,0.774-2.023,0.774c-1.002,0-1.807-0.356-2.415-1.065c-0.611-0.713-0.916-1.732-0.916-3.06     c0-0.857,0.131-1.608,0.393-2.254c0.26-0.643,0.661-1.125,1.198-1.446c0.533-0.323,1.117-0.485,1.748-0.485     c0.794,0,1.444,0.22,1.951,0.657c0.505,0.438,0.83,1.058,0.971,1.858l-1.206,0.203c-0.115-0.533-0.317-0.937-0.61-1.204     c-0.292-0.269-0.645-0.404-1.06-0.404c-0.626,0-1.133,0.242-1.521,0.729c-0.394,0.486-0.587,1.255-0.587,2.309     c0,1.067,0.187,1.845,0.565,2.328c0.375,0.483,0.866,0.728,1.477,0.728c0.485,0,0.892-0.164,1.219-0.487     C110.152,106.639,110.355,106.139,110.443,105.466z"/>
			<path fill="#26377F" d="M112.861,98.953v-1.549h1.24v1.549H112.861z M112.861,108.379v-7.95h1.24v7.95H112.861z"/>
			<path fill="#26377F" d="M115.652,104.402c0-1.471,0.381-2.561,1.135-3.271c0.63-0.589,1.398-0.884,2.303-0.884     c1.008,0,1.828,0.359,2.467,1.077c0.641,0.714,0.96,1.705,0.96,2.966c0,1.024-0.141,1.829-0.423,2.416     c-0.283,0.586-0.695,1.042-1.235,1.365c-0.542,0.325-1.132,0.486-1.769,0.486c-1.025,0-1.854-0.356-2.488-1.071     C115.972,106.774,115.652,105.744,115.652,104.402z M116.93,104.402c0,1.021,0.204,1.78,0.614,2.287     c0.41,0.508,0.925,0.762,1.546,0.762c0.617,0,1.129-0.257,1.539-0.764c0.407-0.51,0.612-1.286,0.612-2.328     c0-0.984-0.207-1.729-0.617-2.234c-0.41-0.506-0.923-0.761-1.534-0.761c-0.621,0-1.136,0.252-1.546,0.755     C117.134,102.624,116.93,103.385,116.93,104.402z M118.399,99.44l0.918-2.096h1.627l-1.518,2.096H118.399z"/>
			<path fill="#26377F" d="M124.098,108.379v-7.95h1.116v1.13c0.539-0.873,1.317-1.312,2.332-1.312c0.441,0,0.848,0.087,1.219,0.26     c0.369,0.174,0.646,0.398,0.83,0.678c0.186,0.28,0.313,0.61,0.385,0.994c0.046,0.252,0.071,0.687,0.071,1.312v4.889h-1.242     v-4.837c0-0.549-0.049-0.959-0.146-1.229c-0.098-0.275-0.266-0.491-0.512-0.655c-0.246-0.161-0.535-0.242-0.866-0.242     c-0.528,0-0.983,0.182-1.367,0.548c-0.385,0.362-0.577,1.056-0.577,2.073v4.342H124.098z"/>
			<path fill="#26377F" d="M136.332,108.379V97.404h7.309V98.7h-5.971v3.36h5.592v1.285h-5.592v3.735h6.205v1.298H136.332z"/>
			<path fill="#26377F" d="M145.196,106.006l1.225-0.21c0.071,0.534,0.26,0.942,0.579,1.228c0.312,0.285,0.754,0.428,1.319,0.428     c0.57,0,0.99-0.129,1.268-0.379c0.277-0.252,0.415-0.549,0.415-0.887c0-0.305-0.123-0.546-0.366-0.72     c-0.172-0.117-0.593-0.271-1.269-0.456c-0.912-0.249-1.542-0.467-1.892-0.648c-0.353-0.182-0.618-0.433-0.804-0.756     c-0.179-0.322-0.27-0.676-0.27-1.065c0-0.356,0.075-0.684,0.224-0.987c0.149-0.299,0.354-0.551,0.61-0.75     c0.194-0.155,0.456-0.286,0.789-0.394s0.692-0.162,1.073-0.162c0.574,0,1.078,0.093,1.515,0.271     c0.432,0.181,0.752,0.424,0.961,0.731c0.207,0.304,0.351,0.717,0.426,1.229l-1.214,0.18c-0.053-0.408-0.216-0.728-0.479-0.959     c-0.265-0.229-0.638-0.342-1.119-0.342c-0.569,0-0.979,0.102-1.22,0.308c-0.246,0.204-0.369,0.442-0.369,0.716     c0,0.177,0.052,0.333,0.154,0.471c0.103,0.147,0.261,0.268,0.477,0.361c0.122,0.05,0.489,0.165,1.097,0.345     c0.876,0.253,1.49,0.464,1.837,0.624c0.345,0.162,0.618,0.398,0.816,0.707c0.198,0.311,0.297,0.693,0.297,1.152     c0,0.452-0.123,0.875-0.363,1.272c-0.241,0.394-0.589,0.701-1.045,0.919c-0.455,0.217-0.969,0.325-1.542,0.325     c-0.953,0-1.679-0.216-2.179-0.643C145.652,107.484,145.335,106.85,145.196,106.006z"/>
			<path fill="#26377F" d="M152.881,111.424v-10.995h1.13v1.033c0.267-0.405,0.566-0.707,0.904-0.909     c0.333-0.203,0.741-0.306,1.22-0.306c0.625,0,1.179,0.177,1.654,0.525c0.477,0.349,0.841,0.844,1.082,1.478     c0.245,0.639,0.365,1.336,0.365,2.094c0,0.811-0.136,1.544-0.401,2.198c-0.272,0.65-0.661,1.15-1.173,1.495     c-0.514,0.347-1.051,0.521-1.616,0.521c-0.413,0-0.788-0.095-1.115-0.284c-0.328-0.189-0.599-0.428-0.81-0.718v3.868H152.881z      M154.004,104.448c0,1.022,0.188,1.778,0.573,2.269c0.38,0.487,0.843,0.734,1.384,0.734c0.553,0,1.023-0.254,1.42-0.762     c0.392-0.507,0.588-1.29,0.588-2.354c0-1.012-0.191-1.772-0.576-2.275c-0.382-0.504-0.842-0.755-1.376-0.755     c-0.528,0-0.997,0.267-1.403,0.805C154.207,102.646,154.004,103.427,154.004,104.448z"/>
			<path fill="#26377F" d="M165.874,105.819l1.281,0.171c-0.199,0.813-0.576,1.445-1.122,1.895     c-0.548,0.447-1.244,0.673-2.096,0.673c-1.07,0-1.922-0.358-2.549-1.073c-0.627-0.717-0.94-1.721-0.94-3.014     c0-1.336,0.315-2.376,0.951-3.113c0.632-0.738,1.458-1.11,2.468-1.11c0.977,0,1.779,0.364,2.399,1.087     c0.622,0.725,0.93,1.741,0.93,3.054c0,0.081,0,0.2-0.005,0.36h-5.463c0.047,0.874,0.275,1.543,0.682,2.006     c0.41,0.464,0.924,0.697,1.532,0.697c0.456,0,0.847-0.131,1.166-0.39C165.43,106.801,165.685,106.389,165.874,105.819z      M161.799,103.639h4.089c-0.054-0.668-0.213-1.171-0.469-1.503c-0.395-0.52-0.907-0.778-1.537-0.778     c-0.568,0-1.051,0.206-1.44,0.621C162.055,102.392,161.84,102.944,161.799,103.639z"/>
			<path fill="#26377F" d="M173.621,105.466l1.219,0.173c-0.133,0.913-0.473,1.629-1.023,2.145     c-0.548,0.517-1.226,0.774-2.023,0.774c-1.003,0-1.806-0.356-2.418-1.065c-0.608-0.713-0.914-1.732-0.914-3.06     c0-0.857,0.135-1.608,0.395-2.254c0.263-0.643,0.662-1.125,1.197-1.446c0.536-0.323,1.119-0.485,1.747-0.485     c0.798,0,1.447,0.22,1.952,0.657c0.504,0.438,0.83,1.058,0.97,1.858l-1.203,0.203c-0.118-0.533-0.319-0.937-0.612-1.204     c-0.292-0.269-0.643-0.404-1.059-0.404c-0.625,0-1.132,0.242-1.523,0.729c-0.392,0.486-0.587,1.255-0.587,2.309     c0,1.067,0.188,1.845,0.567,2.328c0.376,0.483,0.867,0.728,1.476,0.728c0.489,0,0.892-0.164,1.221-0.487     C173.327,106.639,173.535,106.139,173.621,105.466z"/>
			<path fill="#26377F" d="M176.037,98.953v-1.549h1.243v1.549H176.037z M176.037,108.379v-7.95h1.243v7.95H176.037z"/>
			<path fill="#26377F" d="M184.073,107.397c-0.458,0.425-0.901,0.725-1.327,0.899c-0.426,0.174-0.881,0.261-1.367,0.261     c-0.805,0-1.424-0.213-1.855-0.642c-0.433-0.424-0.651-0.97-0.651-1.633c0-0.39,0.084-0.746,0.246-1.068     c0.164-0.32,0.38-0.58,0.641-0.773c0.268-0.195,0.565-0.342,0.895-0.441c0.244-0.071,0.612-0.139,1.104-0.201     c1.002-0.131,1.739-0.285,2.213-0.467c0.005-0.186,0.005-0.299,0.005-0.351c0-0.549-0.116-0.936-0.348-1.162     c-0.318-0.304-0.789-0.455-1.414-0.455c-0.585,0-1.015,0.109-1.293,0.333c-0.28,0.224-0.485,0.616-0.618,1.179l-1.215-0.179     c0.11-0.564,0.292-1.021,0.546-1.366c0.254-0.348,0.617-0.614,1.097-0.802c0.479-0.188,1.032-0.282,1.662-0.282     c0.625,0,1.133,0.083,1.521,0.242c0.393,0.158,0.68,0.36,0.863,0.602c0.183,0.243,0.313,0.548,0.388,0.917     c0.042,0.229,0.062,0.646,0.062,1.242v1.798c0,1.254,0.024,2.045,0.078,2.374c0.055,0.334,0.157,0.651,0.313,0.957h-1.296     C184.193,108.099,184.109,107.771,184.073,107.397z M183.971,104.388c-0.451,0.2-1.127,0.371-2.029,0.509     c-0.507,0.08-0.871,0.169-1.081,0.27c-0.21,0.1-0.373,0.245-0.489,0.438c-0.115,0.191-0.171,0.407-0.171,0.64     c0,0.358,0.124,0.659,0.374,0.899c0.25,0.237,0.617,0.358,1.102,0.358c0.476,0,0.901-0.112,1.275-0.341     c0.372-0.226,0.646-0.538,0.819-0.933c0.134-0.301,0.2-0.753,0.2-1.347V104.388z"/>
			<path fill="#26377F" d="M187.249,108.379V97.404h1.24v10.975H187.249z"/>
		</g>
		<g>
			<defs>
				<path id="SVGID_1_" d="M109.026,54.468c-0.716,0.323-1.434,0.574-2.159,0.745c-2.326,0.501-5.693,0.752-10.104,0.752h-6.352      v19.756h-9.742V23.343h15.634c5.925,0,9.785,0.264,11.585,0.785c2.34,0.666,4.356,1.995,6.052,3.982      c4.67-9.523,12.277-17.475,21.696-22.777H14.84c0,0-7.271,0-7.271,7.892v73.218c0,0,0,7.893,7.271,7.893h119.93      C120.453,85.932,110.507,71.335,109.026,54.468z M21.979,75.722h-9.743V23.343h9.743V75.722z M74.361,75.722h-9.05V34.49      l-9.577,41.231h-9.38L36.809,34.49v41.231h-9.051V23.343h14.581l8.754,35.73l8.656-35.73h14.612V75.722z"/>
			</defs>
			<use xlink:href="#SVGID_1_" fill="#283583"/>
			<clipPath id="SVGID_2_">
				<use xlink:href="#SVGID_1_"/>
			</clipPath>
			<g opacity="0.2" clip-path="url(#SVGID_2_)">
				<g>
					<defs>
						<rect id="SVGID_3_" x="-0.228" y="-12.891" width="243.515" height="55.505"/>
					</defs>
					<clipPath id="SVGID_4_">
						<use xlink:href="#SVGID_3_"/>
					</clipPath>
					<path clip-path="url(#SVGID_4_)" fill="#FFFFFF" d="M3.271,12.845c0,0,96.546,70.605,231.699-9.137       C292.249-30.088,0.699,1.318,0.699,1.318L3.271,12.845z"/>
					<path clip-path="url(#SVGID_4_)" fill="none" stroke="#FFFFFF" d="M3.271,12.845c0,0,96.546,70.605,231.699-9.137       C292.249-30.088,0.699,1.318,0.699,1.318L3.271,12.845z"/>
				</g>
			</g>
		</g>
		<path fill="#283583" d="M102.128,32.562c-1.163-0.237-3.5-0.359-7.01-0.359h-4.707v14.865h5.332c3.839,0,6.405-0.273,7.701-0.82    c1.294-0.548,2.309-1.406,3.044-2.574c0.734-1.166,1.103-2.524,1.103-4.073c0-1.904-0.515-3.476-1.547-4.716    C105.013,33.646,103.707,32.871,102.128,32.562z"/>
		<path fill="#706F6F" d="M122.341,30.8c-2.959,5.714-4.625,12.146-4.625,18.95c0,6.804,1.666,13.235,4.625,18.949V30.8z"/>
		<g>
			<defs>
				<path id="SVGID_5_" d="M162.644,6.9c-14.375,0-27.172,6.44-35.396,16.459h30.869v8.86h-26.034v11.615h24.225v8.824h-24.225      v14.253h26.957v8.827h-32.115c8.21,10.247,21.154,16.86,35.72,16.86c24.81,0,44.925-19.186,44.925-42.85      C207.568,26.085,187.453,6.9,162.644,6.9z M191.872,74.758c-2.81,1.271-6.311,1.908-10.499,1.908      c-6.102,0-10.783-1.528-14.056-4.59c-3.27-3.062-5.223-7.523-5.855-13.379l9.476-1c0.571,3.454,1.729,5.989,3.475,7.61      c1.743,1.618,4.096,2.43,7.059,2.43c3.136,0,5.5-0.722,7.093-2.162c1.592-1.441,2.385-3.127,2.385-5.055      c0-1.238-0.332-2.293-1.002-3.163c-0.67-0.868-1.84-1.626-3.506-2.269c-1.143-0.427-3.74-1.19-7.801-2.288      c-5.223-1.403-8.885-3.131-10.991-5.181c-2.963-2.88-4.445-6.395-4.445-10.539c0-2.669,0.696-5.165,2.092-7.487      c1.393-2.32,3.399-4.09,6.022-5.304c2.622-1.216,5.787-1.823,9.496-1.823c6.057,0,10.615,1.44,13.675,4.324      c3.059,2.88,4.667,6.729,4.823,11.541l-9.745,0.464c-0.417-2.693-1.309-4.627-2.681-5.806c-1.37-1.179-3.429-1.771-6.172-1.771      c-2.831,0-5.047,0.634-6.648,1.895c-1.03,0.81-1.545,1.894-1.545,3.252c0,1.238,0.479,2.298,1.444,3.179      c1.229,1.121,4.217,2.287,8.953,3.502c4.738,1.214,8.246,2.469,10.516,3.77c2.273,1.298,4.049,3.07,5.333,5.323      c1.283,2.25,1.927,5.03,1.927,8.341c0,3-0.771,5.813-2.307,8.433C196.852,71.533,194.678,73.483,191.872,74.758z"/>
			</defs>
			<use xlink:href="#SVGID_5_" fill="#706F6F"/>
			<clipPath id="SVGID_6_">
				<use xlink:href="#SVGID_5_"/>
			</clipPath>
			<g opacity="0.2" clip-path="url(#SVGID_6_)">
				<g>
					<defs>
						<rect id="SVGID_7_" x="-3.125" y="-13.79" width="243.515" height="55.506"/>
					</defs>
					<clipPath id="SVGID_8_">
						<use xlink:href="#SVGID_7_"/>
					</clipPath>
					<path clip-path="url(#SVGID_8_)" fill="#FFFFFF" d="M0.373,11.945c0,0,96.546,70.606,231.699-9.137       C289.352-30.987-2.198,0.419-2.198,0.419L0.373,11.945z"/>
					<path clip-path="url(#SVGID_8_)" fill="none" stroke="#FFFFFF" d="M0.373,11.945c0,0,96.546,70.606,231.699-9.137       C289.352-30.987-2.198,0.419-2.198,0.419L0.373,11.945z"/>
				</g>
			</g>
		</g>
	</g>
</g>
</svg>
